<svg width="3324" height="911" xmlns="http://www.w3.org/2000/svg" xmlns:xlink="http://www.w3.org/1999/xlink" xml:space="preserve" overflow="hidden"><defs><clipPath id="clip0"><rect x="535" y="610" width="3324" height="911"/></clipPath></defs><g clip-path="url(#clip0)" transform="translate(-535 -610)"><path d="M320.07 898.728C261.687 867.797 253.828 850.926 249.898 741.824L247.091 654.656 156.148 651.844 65.7671 649.032 43.8731 631.599C32.084 622.601 16.9272 603.48 9.62919 589.42-2.72128 565.801-3.28266 560.177-1.59851 446.576 0.0856449 329.039 0.0856449 328.477 15.243 306.544 23.6638 294.734 41.0661 277.863 54.5394 268.865L78.6783 252.556 282.458 252.556 485.676 252.556 485.676 418.457 485.676 584.359 647.353 584.359 809.591 584.359 821.38 571.424C833.168 559.052 833.73 553.428 833.73 454.45 833.168 381.903 831.484 348.16 826.432 341.974 811.836 322.291 796.117 320.041 691.14 320.041L586.725 320.041 586.725 223.312C586.725 106.9 582.233 86.0923 555.848 74.8449 531.709 64.7221 378.454 63.5974 350.946 73.1576 327.93 81.5936 317.263 105.776 317.263 151.328L317.263 185.071 283.019 185.071 248.214 185.071 251.583 128.833C253.828 82.7183 256.635 69.7835 267.301 54.5994 284.142 30.9792 292.563 23.6684 320.07 10.7337 339.719 1.17353 355.437-0.513789 446.38-0.513789 503.641-0.513789 559.778 2.29822 572.129 5.67228 600.197 13.5457 638.371 51.7873 647.353 81.5936 651.283 95.0904 654.09 136.706 654.09 178.885L654.09 252.556 734.928 252.556C779.838 252.556 821.941 254.806 829.239 257.617 837.098 260.429 853.378 272.239 865.729 284.611 899.411 316.105 906.709 346.473 906.709 455.012 906.709 572.549 897.166 603.48 849.448 638.909L831.484 651.844 624.898 651.844 418.311 651.844 417.189 487.63 415.505 322.853 257.196 321.166 99.4496 320.041 82.0467 337.475 64.6443 354.909 64.6443 452.2C64.6443 548.929 64.6443 550.054 79.2397 566.925L93.8357 584.359 205.55 584.359 317.263 584.359 317.263 687.836C317.263 745.199 320.07 798.062 322.877 807.623 332.982 836.867 347.578 840.24 455.362 840.24L553.041 840.24 567.637 825.056C580.549 812.122 583.356 804.248 585.602 767.694L588.408 724.953 622.091 724.953 655.212 724.953 652.967 775.567C650.721 820.558 649.037 828.993 633.88 849.801 624.898 862.735 606.372 881.294 592.899 890.854L568.76 907.726 455.924 908.85C350.384 910.538 340.842 909.413 320.07 898.728Z" fill="#064966" fill-rule="evenodd" transform="matrix(1 0 0 -1 538 1520)"/><path d="M57.8954 303.873C35.7614 299.385 22.6194 289.029 11.5522 267.28L1.17669 246.913 0.139135 164.06C-1.24391 62.9122 1.17669 46.6871 21.5819 24.5932 44.0618 0.0827312 43.3701 0.0827312 142.282-0.262283 245.689-0.607659 247.764 0.0827312 256.757 26.3194 264.365 48.4129 265.057 176.143 257.448 182.357 254.336 185.119 230.818 186.154 180.671 185.464L108.389 184.428 108.389 158.537 108.389 132.646 158.536 130.92 208.684 129.194 209.722 96.7435C210.413 76.0303 209.376 62.9122 206.609 59.8053 203.496 56.0079 189.663 54.9722 140.553 54.9722 104.585 54.9722 75.8793 56.353 71.7295 58.4245 56.8579 66.7095 54.7828 78.1015 54.7828 154.049 54.7828 219.64 55.4745 226.89 61.6998 237.246 65.5042 243.115 68.9627 248.638 69.3085 248.984 70.0002 249.329 113.231 250.364 165.454 251.4L260.561 253.471 260.561 279.363 260.561 305.254 165.454 305.599C113.231 305.944 64.8125 305.254 57.8954 303.873Z" fill="#E71D1C" fill-rule="evenodd" transform="matrix(1 0 0 -1 1515 1065)"/><path d="M1.69505 301.445C-2.10635 291.8-0.724024 260.108 3.76854 255.63 6.87877 252.53 31.7603 251.496 94.655 251.496 191.071 251.496 194.527 250.807 198.674 229.106 199.71 222.561 199.71 211.537 198.674 204.993 194.181 182.257 195.218 182.602 96.7285 182.602 25.1942 182.602 6.53319 181.569 3.42295 177.779 0.658302 174.679-0.378442 147.81 0.312721 87.5274L1.34947 1.7538 27.9589 0.720626 54.9139-0.312908 55.605 62.7255 56.6418 125.764 95.0006 126.797 133.705 127.831 148.911 100.962C157.55 86.1496 165.498 71.6819 166.881 68.9259 168.263 66.1703 173.792 56.1807 179.321 46.5353 185.196 37.2346 193.144 22.7666 197.291 14.844L204.894 0.0313629 233.577 0.0313629C256.039 0.0313629 262.951 1.0649 264.333 5.19867 265.715 7.95428 257.767 25.1779 246.363 43.7794 235.65 62.3812 224.246 82.3604 221.482 87.872 218.371 93.7279 212.497 103.718 208.004 110.263 197.982 125.075 197.982 126.108 209.041 128.864 223.21 132.654 234.613 141.265 244.29 156.422 252.929 169.856 253.275 172.957 253.62 215.327 253.62 257.697 253.275 260.797 244.635 274.92 239.797 282.843 230.466 293.178 224.592 297.656 213.188 305.923 213.188 305.923 108.478 306.612 15.1724 306.956 3.76854 306.267 1.69505 301.445Z" fill="#E71D1C" fill-rule="evenodd" transform="matrix(1 0 0 -1 1867 1065)"/><path d="M34.6481 301.351C18.133 294.111 5.7464 273.082 1.61753 243.778-5.60762 191.377 8.84305 140.354 33.6159 131.736 41.1855 129.322 70.0872 127.599 111.719 127.599L178.124 127.254 183.629 118.635C190.855 107.604 188.79 62.7863 181.221 57.9597 178.468 56.2359 138.212 54.857 91.4193 54.857-4.57541 54.857-0.790611 55.8914-0.790611 27.2772-0.790611-1.68124-5.95169-0.302334 102.429-0.302334 157.48-0.302334 202.209 1.07657 207.37 3.14492 232.487 12.798 245.561 48.3071 242.809 101.053 240.745 139.32 231.455 162.418 212.875 174.484 201.865 182.069 197.736 182.413 134.772 182.413 79.0327 182.413 67.6787 183.447 63.2057 187.929 56.3243 194.824 55.2921 242.399 62.1735 246.881 64.238 248.26 103.461 250.329 148.878 251.363L231.455 253.086 231.455 278.942 231.455 304.799 138.556 305.488C65.2702 306.177 43.2499 305.143 34.6481 301.351Z" fill="#E71D1C" fill-rule="evenodd" transform="matrix(1 0 0 -1 2220 1065)"/><path d="M43.6761 297.499C8.74281 280.285-1.97951 246.2-1.97951 150.831-1.97951 79.9073 5.62988 39.9699 23.2695 21.3779 41.6008 1.40914 48.1725 0.376156 146.401 0.032067L237.021-0.312383 235.983 26.5424 234.945 53.3969 152.973 55.1184C84.1438 56.4955 69.9627 57.873 65.4662 62.3486 56.8196 70.9559 52.3231 113.304 54.0525 170.456 56.1278 236.904 59.5866 245.856 82.7603 248.954 91.7528 250.331 130.145 251.364 168.191 251.364L237.021 251.364 235.983 278.219 234.945 304.729 148.131 305.418C61.3157 306.106 60.9698 306.106 43.6761 297.499Z" fill-rule="evenodd" transform="matrix(1 0 0 -1 1515 1429)"/><path d="M53.8595 302.246C36.286 297.427 13.5436 273.332 6.30734 251.303-1.61779 227.553-5.40824 110.178 0.793953 77.4784 6.65192 45.4671 19.4016 23.0938 38.3535 10.358L54.5487-0.312307 139.316 0.720431 224.083 1.75317 238.555 11.3907C249.582 18.6192 255.784 26.536 263.365 43.058L273.702 65.087 272.669 157.335C271.635 245.796 271.29 250.271 263.71 263.695 254.406 280.561 245.102 289.51 227.529 298.804 215.124 305.344 208.232 305.688 139.66 305.688 98.3108 305.688 60.0621 303.967 53.8595 302.246ZM208.577 241.665C216.158 234.093 216.502 231.339 217.536 162.154 218.914 81.609 216.158 63.7103 202.374 58.5473 192.726 54.7611 86.9395 54.0723 74.1898 57.1702 57.9946 61.6451 55.5825 73.6922 55.9271 154.237 56.2716 255.778 51.792 251.303 144.829 250.271 197.895 249.582 201.34 249.238 208.577 241.665Z" fill-rule="evenodd" transform="matrix(1 0 0 -1 1844 1429)"/><path d="M16.3576 304.535C13.593 303.499 8.06414 299.357 4.26281 295.214-2.30311 288.309-2.64869 283.475-2.64869 144.688L-2.64869 1.41268 23.2691 1.41268 49.1868 1.41268 50.9147 118.795C52.6426 225.82 52.9882 235.487 57.8262 227.546 73.7223 201.653 135.234 92.2114 138.344 84.2708 139.726 80.4732 142.491 76.6752 143.873 75.6397 145.601 74.6039 149.748 67.6991 153.549 60.1039 170.136 27.3059 183.268 6.24613 189.143 3.13896 192.598 1.06728 208.84-0.313607 224.736-0.313607 248.581-0.313607 255.492 1.06728 262.058 6.24613L270.352 12.8055 270.352 159.188 270.352 305.226 247.544 306.261C231.302 306.952 223.7 305.916 220.935 302.464 218.171 299.011 216.443 262.761 216.097 182.665L215.06 67.6991 202.966 90.1397C187.415 119.486 158.041 171.962 142.491 198.201 135.925 209.594 127.286 225.13 123.484 232.725 109.661 260.344 93.7653 286.238 84.7803 296.595 76.1413 306.607 74.759 306.952 48.4957 306.607 33.6363 306.607 19.1222 305.571 16.3576 304.535Z" fill-rule="evenodd" transform="matrix(1 0 0 -1 2211 1429)"/><path d="M13.5974 302.202C-3.35038 293.578-3.69626 290.819-2.65862 141.114L-1.96686 1.4111 23.2821 0.376509C36.771-0.313697 48.531-0.313697 48.8769 0.376509 49.2227 1.06635 50.6063 54.1877 51.6439 118.692L53.3733 235.973 65.4788 215.277C72.0505 203.893 79.6595 189.406 82.0807 183.541 84.8477 177.332 88.3065 172.158 90.0359 172.158 91.7653 172.158 93.1488 170.779 93.1488 168.709 93.1488 162.5 179.963 11.7595 186.881 5.55053 192.761 1.06635 200.716-0.313697 224.236-0.313697 259.169-0.313697 265.049 2.79115 269.545 22.1079 271.275 29.6966 273.004 95.2358 273.004 167.329 273.004 276.676 272.312 299.787 268.162 302.892 265.049 305.307 254.327 306.687 241.184 305.997L219.393 304.962 217.664 186.301 215.935 67.6406 205.558 86.2675C200.024 96.6155 193.453 107.999 191.032 111.793 188.61 115.588 183.768 124.901 179.618 132.49 175.813 140.079 169.241 151.807 165.437 158.36 161.286 164.915 143.301 196.994 125.315 229.074 107.33 261.499 88.6524 291.854 83.4642 297.373 75.1634 305.997 72.3964 306.687 48.531 306.687 34.004 306.687 18.4397 304.617 13.5974 302.202Z" fill-rule="evenodd" transform="matrix(1 0 0 -1 2576 1429)"/><path d="M-1.35931 46.9807C-4.47474 35.2932-3.78242 18.4495 0.0253198 8.48083L3.4869-0.456867 118.41 0.230592 233.679 1.26196 233.679 27.0433 233.679 52.8247 117.371 53.8557 0.717637 54.5431-1.35931 46.9807Z" fill-rule="evenodd" transform="matrix(1 0 0 -1 2938 1177)"/><path d="M41.3012 296.93C21.9479 286.941 16.0732 281.086 5.35977 261.454L-3.62566 244.232-3.62566 149.514-3.28007 54.7951 7.77893 35.8517C15.0364 22.4188 23.3303 13.8081 33.3525 8.29718 48.2127-0.313591 48.9039-0.313591 139.794-0.313591L231.375-0.313591 231.375 25.5187 231.375 51.351 149.816 53.0732C88.3012 54.4509 66.8747 55.8285 62.7276 59.6172 52.7054 67.5391 49.9406 87.516 49.9406 148.825 49.9406 209.789 53.3966 235.277 63.0732 243.199 66.8747 246.298 90.7203 248.021 149.816 249.398L231.375 251.121 231.375 276.953 231.375 302.785 143.25 303.474C60.654 304.163 54.4334 303.474 41.3012 296.93Z" fill-rule="evenodd" transform="matrix(1 0 0 -1 3268 1427)"/><path d="M-2.89187 302.654C-3.92672 299.894-4.27167 287.816-3.58177 275.739L-2.54693 253.655 49.8842 252.62 102.661 251.585 103.351 126.671 104.385 1.75718 131.291 0.721867 157.852-0.313086 157.852 125.636 157.852 251.585 210.628 252.62 263.06 253.655 263.06 279.535 263.06 305.415 130.946 306.45C21.9441 307.14-1.16749 306.45-2.89187 302.654Z" fill-rule="evenodd" transform="matrix(1 0 0 -1 3595 1429)"/><path d="M15.0514 178.19C-0.539813 169.579-2.96517 161.312-3.31165 119.976-3.65813 64.5176 1.88554 43.1607 22.6739 21.4596 41.3835 1.48087 46.9271 0.44736 144.286 0.102738L232.637-0.241524 232.637 31.1047C232.637 60.3839 232.291 62.1063 225.015 63.8287 220.511 64.8618 183.784 65.8953 143.593 66.2399 72.5662 67.2731 69.7944 67.6177 62.1718 74.8515 56.2821 81.0519 54.2032 87.5964 53.1637 105.164L51.7778 127.554 140.129 127.554C217.392 127.554 228.826 128.243 230.559 133.066 234.369 142.711 232.637 174.401 228.48 178.535 222.59 184.391 26.1387 184.046 15.0514 178.19Z" fill-rule="evenodd" transform="matrix(1 0 0 -1 2941 1429)"/></g></svg>