<svg width="910" height="910" xmlns="http://www.w3.org/2000/svg" xmlns:xlink="http://www.w3.org/1999/xlink" xml:space="preserve" overflow="hidden"><defs><clipPath id="clip0"><rect x="2826" y="840" width="910" height="910"/></clipPath></defs><g clip-path="url(#clip0)" transform="translate(-2826 -840)"><path d="M320.07 897.74C261.687 866.843 253.828 849.991 249.898 741.009L247.091 653.937 156.148 651.128 65.7671 648.319 43.8731 630.905C32.084 621.916 16.9272 602.817 9.62919 588.773-2.72128 565.179-3.28266 559.561-1.59851 446.086 0.0856449 328.678 0.0856449 328.116 15.243 306.207 23.6638 294.41 41.0661 277.558 54.5394 268.57L78.6783 252.278 282.458 252.278 485.676 252.278 485.676 417.998 485.676 583.717 647.353 583.717 809.591 583.717 821.38 570.796C833.168 558.438 833.73 552.82 833.73 453.95 833.168 381.483 831.484 347.777 826.432 341.598 811.836 321.937 796.117 319.689 691.14 319.689L586.725 319.689 586.725 223.067C586.725 106.783 582.233 85.9977 555.848 74.7626 531.709 64.651 378.454 63.5275 350.946 73.0772 327.93 81.5039 317.263 105.66 317.263 151.162L317.263 184.867 283.019 184.867 248.214 184.867 251.583 128.692C253.828 82.6274 256.635 69.7068 267.301 54.5394 284.142 30.9451 292.563 23.6424 320.07 10.7219 339.719 1.17224 355.437-0.513224 446.38-0.513224 503.641-0.513224 559.778 2.29569 572.129 5.66605 600.197 13.5308 638.371 51.7304 647.353 81.5039 651.283 94.9859 654.09 136.556 654.09 178.688L654.09 252.278 734.928 252.278C779.838 252.278 821.941 254.526 829.239 257.334 837.098 260.143 853.378 271.94 865.729 284.299 899.411 315.758 906.709 346.093 906.709 454.512 906.709 571.92 897.166 602.817 849.448 638.207L831.484 651.128 624.898 651.128 418.311 651.128 417.189 487.094 415.505 322.498 257.196 320.813 99.4496 319.689 82.0467 337.104 64.6443 354.519 64.6443 451.703C64.6443 548.326 64.6443 549.449 79.2397 566.302L93.8357 583.717 205.55 583.717 317.263 583.717 317.263 687.081C317.263 744.38 320.07 797.185 322.877 806.735 332.982 835.947 347.578 839.317 455.362 839.317L553.041 839.317 567.637 824.15C580.549 811.229 583.356 803.364 585.602 766.85L588.408 724.157 622.091 724.157 655.212 724.157 652.967 774.715C650.721 819.656 649.037 828.082 633.88 848.867 624.898 861.787 606.372 880.326 592.899 889.875L568.76 906.728 455.924 907.852C350.384 909.537 340.842 908.414 320.07 897.74Z" fill="#FFFFFF" fill-rule="evenodd" transform="matrix(1 0 0 -1 2829 1749)"/></g></svg>