<svg xmlns="http://www.w3.org/2000/svg" width="69" height="24.218" viewBox="0 0 69 24.218"><defs><style>.a{fill:#bcbec0;}.b{fill:#47a5ae;}.c{fill:none;stroke:#231f20;stroke-miterlimit:10;stroke-width:0.1px;}.d{fill:#b3b3b3;}</style></defs><g transform="translate(-30.86 -22.36)"><path class="a" d="M45.057,22.487a10.862,10.862,0,0,1,1.553-.127s-.33.387-.439.519a8.552,8.552,0,0,0-1.364,2.312,3.353,3.353,0,0,0-.142,1.213A6.243,6.243,0,0,0,46.3,29.9c.269.316.9.911,1.807,1.755,1.217,1.133,3.36,3.129,3.615,4.091a12.5,12.5,0,0,0-3.152-3.157s-3.756-2.751-4.554-4.6a4.889,4.889,0,0,1,.755-5.162C44.849,22.733,44.967,22.591,45.057,22.487Z" transform="translate(-6.732)"/><path class="a" d="M35.706,55.822a4,4,0,0,0,.911.2s.094-.071.16-.123a6.176,6.176,0,0,0,2.029-3.242,4.851,4.851,0,0,0-.293-2.888,6.492,6.492,0,0,0-1.878-2.411c-.2-.175-.93-.75-1.284-1.033C34.2,45.4,31.549,43,30.86,40.42c0,0-.085,2.68,3.737,6.852a7.935,7.935,0,0,1,2.09,4.011,6.384,6.384,0,0,1,.071.939c0,.16-.009.33-.019.477a6.582,6.582,0,0,1-.8,2.756C35.895,55.53,35.791,55.7,35.706,55.822Z" transform="translate(0 -9.538)"/><path class="b" d="M37.731,46.737a6.114,6.114,0,0,0,2.3-4.587,5.025,5.025,0,0,0-1.312-3.28,11.73,11.73,0,0,0-1.737-1.633c-.84-.684-2.067-1.7-2.435-2.114a16.457,16.457,0,0,1-2.237-2.874,6.457,6.457,0,0,1-.67-4.568,6.345,6.345,0,0,1,2.562-3.855,7.052,7.052,0,0,1,3.511-1.137,4.186,4.186,0,0,0-1.081,1.84,6.462,6.462,0,0,0-.245,1.151,4.569,4.569,0,0,0,.316,2.341,5.642,5.642,0,0,0,.58,1.081,14.691,14.691,0,0,0,2.543,2.732c.184.16,1,.783,1.562,1.241a20.008,20.008,0,0,1,2.284,2.114A7.594,7.594,0,0,1,45.522,39.5a8.891,8.891,0,0,1-.066,1.708,5.639,5.639,0,0,1-2.35,4.115A7.813,7.813,0,0,1,37.731,46.737Z" transform="translate(-0.336 -0.174)"/><path class="c" d="M40.95,73.34" transform="translate(-5.329 -26.923)"/><g transform="translate(47.375 23.827)"><path class="a" d="M79.61,26.234l-.335,3.992a11.858,11.858,0,0,0-4.681-.906s-3.086-.156-3.185,2.123a1.56,1.56,0,0,0,1,1.633,19.162,19.162,0,0,0,3.048,1.081A9.329,9.329,0,0,1,79.412,36.4s1.335,1.1,1.2,4.068a6.261,6.261,0,0,1-1.534,3.973A10.439,10.439,0,0,1,73.3,46.7a23.172,23.172,0,0,1-7.234-.807l.335-4.3a12.021,12.021,0,0,0,4.917,1.359s2.539.137,3.52-1.4a2.153,2.153,0,0,0-.373-2.614,7.349,7.349,0,0,0-2.85-1.236,11.1,11.1,0,0,1-4.582-2.26,5.462,5.462,0,0,1-1.161-3.973,5.691,5.691,0,0,1,2.987-4.8,10.789,10.789,0,0,1,5.073-1.2A30.853,30.853,0,0,1,79.61,26.234Z" transform="translate(-65.859 -25.47)"/><path class="d" d="M119.028,34.268a9.708,9.708,0,0,0-3.468-6.352,12.9,12.9,0,0,0-2.251-1.43,11.759,11.759,0,0,0-11.59,1.17c-3.718,2.713-3.865,7.9-3.865,7.9a11.718,11.718,0,0,0,2.359,7.7,10.193,10.193,0,0,0,7.215,3.473c.538.033,1.845.024,2.3-.009a10.081,10.081,0,0,0,6.531-2.926,10.569,10.569,0,0,0,1.246-1.59,9.994,9.994,0,0,0,1.274-2.874A14.886,14.886,0,0,0,119.028,34.268Zm-5.389,1.76a11.321,11.321,0,0,1-1.26,4.761,5.028,5.028,0,0,1-.779.93,4.346,4.346,0,0,1-1.656.788,7.187,7.187,0,0,1-2.676.113,3.4,3.4,0,0,1-2.01-1.052,6.663,6.663,0,0,1-1.406-2.562,11.584,11.584,0,0,1-.514-3.431s-.019-6,5.092-6.017a4.784,4.784,0,0,1,3.695,1.534A7.126,7.126,0,0,1,113.639,36.028Z" transform="translate(-82.744 -25.472)"/><path class="d" d="M159.465,26.14l-.434,4.247a7.59,7.59,0,0,0-6.29-.118,6.134,6.134,0,0,0-2.713,5.309s-.354,4.917,3.067,6.644c0,0,2.6,1.335,6.488-.434l.274,4.327s-5.111,1.59-9.768-.156a8.125,8.125,0,0,1-1.7-.953,10.956,10.956,0,0,1-3.912-9.159S144.2,29.2,149.9,26.371C149.909,26.376,153.486,24.606,159.465,26.14Z" transform="translate(-107.373 -25.493)"/></g></g></svg>