<svg width="3324" height="910" xmlns="http://www.w3.org/2000/svg" xmlns:xlink="http://www.w3.org/1999/xlink" xml:space="preserve" overflow="hidden"><defs><clipPath id="clip0"><rect x="535" y="783" width="3324" height="910"/></clipPath></defs><g clip-path="url(#clip0)" transform="translate(-535 -783)"><path d="M320.07 897.74C261.687 866.843 253.828 849.991 249.898 741.009L247.091 653.937 156.148 651.128 65.7671 648.319 43.8731 630.905C32.084 621.916 16.9272 602.817 9.62919 588.773-2.72128 565.179-3.28266 559.561-1.59851 446.086 0.0856449 328.678 0.0856449 328.116 15.243 306.207 23.6638 294.41 41.0661 277.558 54.5394 268.57L78.6783 252.278 282.458 252.278 485.676 252.278 485.676 417.998 485.676 583.717 647.353 583.717 809.591 583.717 821.38 570.796C833.168 558.438 833.73 552.82 833.73 453.95 833.168 381.483 831.484 347.777 826.432 341.598 811.836 321.937 796.117 319.689 691.14 319.689L586.725 319.689 586.725 223.067C586.725 106.783 582.233 85.9977 555.848 74.7626 531.709 64.651 378.454 63.5275 350.946 73.0772 327.93 81.5039 317.263 105.66 317.263 151.162L317.263 184.867 283.019 184.867 248.214 184.867 251.583 128.692C253.828 82.6274 256.635 69.7068 267.301 54.5394 284.142 30.9451 292.563 23.6424 320.07 10.7219 339.719 1.17224 355.437-0.513224 446.38-0.513224 503.641-0.513224 559.778 2.29569 572.129 5.66605 600.197 13.5308 638.371 51.7304 647.353 81.5039 651.283 94.9859 654.09 136.556 654.09 178.688L654.09 252.278 734.928 252.278C779.838 252.278 821.941 254.526 829.239 257.334 837.098 260.143 853.378 271.94 865.729 284.299 899.411 315.758 906.709 346.093 906.709 454.512 906.709 571.92 897.166 602.817 849.448 638.207L831.484 651.128 624.898 651.128 418.311 651.128 417.189 487.094 415.505 322.498 257.196 320.813 99.4496 319.689 82.0467 337.104 64.6443 354.519 64.6443 451.703C64.6443 548.326 64.6443 549.449 79.2397 566.302L93.8357 583.717 205.55 583.717 317.263 583.717 317.263 687.081C317.263 744.38 320.07 797.185 322.877 806.735 332.982 835.947 347.578 839.317 455.362 839.317L553.041 839.317 567.637 824.15C580.549 811.229 583.356 803.364 585.602 766.85L588.408 724.157 622.091 724.157 655.212 724.157 652.967 774.715C650.721 819.656 649.037 828.082 633.88 848.867 624.898 861.787 606.372 880.326 592.899 889.875L568.76 906.728 455.924 907.852C350.384 909.537 340.842 908.414 320.07 897.74Z" fill="#FFFFFF" fill-rule="evenodd" transform="matrix(1 0 0 -1 538 1692)"/><path d="M57.8954 303.873C35.7614 299.385 22.6194 289.029 11.5522 267.28L1.17669 246.913 0.139135 164.06C-1.24391 62.9122 1.17669 46.6871 21.5819 24.5932 44.0618 0.0827312 43.3701 0.0827312 142.282-0.262283 245.689-0.607659 247.764 0.0827312 256.757 26.3194 264.365 48.4129 265.057 176.143 257.448 182.357 254.336 185.119 230.818 186.154 180.671 185.464L108.389 184.428 108.389 158.537 108.389 132.646 158.536 130.92 208.684 129.194 209.722 96.7435C210.413 76.0303 209.376 62.9122 206.609 59.8053 203.496 56.0079 189.663 54.9722 140.553 54.9722 104.585 54.9722 75.8793 56.353 71.7295 58.4245 56.8579 66.7095 54.7828 78.1015 54.7828 154.049 54.7828 219.64 55.4745 226.89 61.6998 237.246 65.5042 243.115 68.9627 248.638 69.3085 248.984 70.0002 249.329 113.231 250.364 165.454 251.4L260.561 253.471 260.561 279.363 260.561 305.254 165.454 305.599C113.231 305.944 64.8125 305.254 57.8954 303.873Z" fill="#FFFFFF" fill-rule="evenodd" transform="matrix(1 0 0 -1 1515 1238)"/><path d="M1.69505 302.427C-2.10635 292.75-0.724024 260.955 3.76854 256.463 6.87877 253.352 31.7603 252.316 94.655 252.316 191.071 252.316 194.527 251.624 198.674 229.852 199.71 223.286 199.71 212.226 198.674 205.66 194.181 182.851 195.218 183.197 96.7285 183.197 25.1942 183.197 6.53319 182.16 3.42295 178.358 0.658302 175.248-0.378442 148.292 0.312721 87.8125L1.34947 1.75951 27.9589 0.722973 54.9139-0.313927 55.605 62.9298 56.6418 126.173 95.0006 127.21 133.705 128.247 148.911 101.291C157.55 86.4302 165.498 71.9154 166.881 69.1505 168.263 66.3859 173.792 56.3637 179.321 46.6869 185.196 37.3559 193.144 22.8407 197.291 14.8924L204.894 0.0314651 233.577 0.0314651C256.039 0.0314651 262.951 1.06837 264.333 5.21561 265.715 7.98019 257.767 25.2599 246.363 43.922 235.65 62.5844 224.246 82.6287 221.482 88.1583 218.371 94.0332 212.497 104.056 208.004 110.622 197.982 125.482 197.982 126.519 209.041 129.284 223.21 133.086 234.613 141.726 244.29 156.931 252.929 170.41 253.275 173.52 253.62 216.028 253.62 258.536 253.275 261.647 244.635 275.816 239.797 283.765 230.466 294.133 224.592 298.625 213.188 306.92 213.188 306.92 108.478 307.611 15.1724 307.956 3.76854 307.265 1.69505 302.427Z" fill="#FFFFFF" fill-rule="evenodd" transform="matrix(1 0 0 -1 1867 1238)"/><path d="M34.6481 302.336C18.133 295.073 5.7464 273.974 1.61753 244.575-5.60762 192.002 8.84305 140.813 33.6159 132.166 41.1855 129.745 70.0872 128.016 111.719 128.016L178.124 127.67 183.629 119.023C190.855 107.955 188.79 62.9915 181.221 58.1492 178.468 56.4197 138.212 55.0363 91.4193 55.0363-4.57541 55.0363-0.790611 56.0741-0.790611 27.3663-0.790611-1.68673-5.95169-0.303322 102.429-0.303322 157.48-0.303322 202.209 1.08009 207.37 3.1552 232.487 12.8398 245.561 48.4649 242.809 101.383 240.745 139.775 231.455 162.949 212.875 175.054 201.865 182.664 197.736 183.01 134.772 183.01 79.0327 183.01 67.6787 184.047 63.2057 188.544 56.3243 195.461 55.2921 243.192 62.1735 247.688 64.238 249.071 103.461 251.147 148.878 252.184L231.455 253.914 231.455 279.854 231.455 305.795 138.556 306.486C65.2702 307.178 43.2499 306.141 34.6481 302.336Z" fill="#FFFFFF" fill-rule="evenodd" transform="matrix(1 0 0 -1 2220 1238)"/><path d="M43.6761 298.471C8.74281 281.201-1.97951 247.004-1.97951 151.324-1.97951 80.1684 5.62988 40.1005 23.2695 21.4477 41.6008 1.41375 48.1725 0.377386 146.401 0.0321718L237.021-0.313404 235.983 26.6292 234.945 53.5714 152.973 55.2986C84.1438 56.6801 69.9627 58.0621 65.4662 62.5524 56.8196 71.1878 52.3231 113.674 54.0525 171.013 56.1278 237.678 59.5866 246.659 82.7603 249.768 91.7528 251.149 130.145 252.186 168.191 252.186L237.021 252.186 235.983 279.128 234.945 305.725 148.131 306.416C61.3157 307.107 60.9698 307.107 43.6761 298.471Z" fill="#FFFFFF" fill-rule="evenodd" transform="matrix(1 0 0 -1 1515 1602)"/><path d="M53.8595 303.234C36.286 298.399 13.5436 274.226 6.30734 252.124-1.61779 228.297-5.40824 110.538 0.793953 77.7316 6.65192 45.6157 19.4016 23.1693 38.3535 10.3919L54.5487-0.313328 139.316 0.722786 224.083 1.7589 238.555 11.428C249.582 18.68 255.784 26.6227 263.365 43.1987L273.702 65.2997 272.669 157.849C271.635 246.599 271.29 251.089 263.71 264.557 254.406 281.478 245.102 290.456 227.529 299.78 215.124 306.342 208.232 306.687 139.66 306.687 98.3108 306.687 60.0621 304.96 53.8595 303.234ZM208.577 242.455C216.158 234.858 216.502 232.095 217.536 162.684 218.914 81.8757 216.158 63.9185 202.374 58.7386 192.726 54.94 86.9395 54.249 74.1898 57.357 57.9946 61.8466 55.5825 73.933 55.9271 154.741 56.2716 256.614 51.792 252.124 144.829 251.089 197.895 250.398 201.34 250.052 208.577 242.455Z" fill="#FFFFFF" fill-rule="evenodd" transform="matrix(1 0 0 -1 1844 1602)"/><path d="M16.3576 303.543C13.593 302.511 8.06414 298.382 4.26281 294.252-2.30311 287.37-2.64869 282.552-2.64869 144.217L-2.64869 1.40808 23.2691 1.40808 49.1868 1.40808 50.9147 118.408C52.6426 225.085 52.9882 234.72 57.8262 226.805 73.7223 200.996 135.234 91.911 138.344 83.9963 139.726 80.211 142.491 76.4254 143.873 75.3933 145.601 74.3609 149.748 67.4786 153.549 59.9081 170.136 27.2169 183.268 6.22579 189.143 3.12874 192.598 1.0638 208.84-0.312586 224.736-0.312586 248.581-0.312586 255.492 1.0638 262.058 6.22579L270.352 12.7638 270.352 158.67 270.352 304.231 247.544 305.264C231.302 305.952 223.7 304.92 220.935 301.479 218.171 298.037 216.443 261.905 216.097 182.07L215.06 67.4786 202.966 89.8461C187.415 119.096 158.041 171.402 142.491 197.555 135.925 208.911 127.286 224.396 123.484 231.967 109.661 259.496 93.7653 285.305 84.7803 295.628 76.1413 305.608 74.759 305.952 48.4957 305.608 33.6363 305.608 19.1222 304.576 16.3576 303.543Z" fill="#FFFFFF" fill-rule="evenodd" transform="matrix(1 0 0 -1 2211 1601)"/><path d="M13.5974 302.202C-3.35038 293.578-3.69626 290.819-2.65862 141.114L-1.96686 1.4111 23.2821 0.376509C36.771-0.313697 48.531-0.313697 48.8769 0.376509 49.2227 1.06635 50.6063 54.1877 51.6439 118.692L53.3733 235.973 65.4788 215.277C72.0505 203.893 79.6595 189.406 82.0807 183.541 84.8477 177.332 88.3065 172.158 90.0359 172.158 91.7653 172.158 93.1488 170.779 93.1488 168.709 93.1488 162.5 179.963 11.7595 186.881 5.55053 192.761 1.06635 200.716-0.313697 224.236-0.313697 259.169-0.313697 265.049 2.79115 269.545 22.1079 271.275 29.6966 273.004 95.2358 273.004 167.329 273.004 276.676 272.312 299.787 268.162 302.892 265.049 305.307 254.327 306.687 241.184 305.997L219.393 304.962 217.664 186.301 215.935 67.6406 205.558 86.2675C200.024 96.6155 193.453 107.999 191.032 111.793 188.61 115.588 183.768 124.901 179.618 132.49 175.813 140.079 169.241 151.807 165.437 158.36 161.286 164.915 143.301 196.994 125.315 229.074 107.33 261.499 88.6524 291.854 83.4642 297.373 75.1634 305.997 72.3964 306.687 48.531 306.687 34.004 306.687 18.4397 304.617 13.5974 302.202Z" fill="#FFFFFF" fill-rule="evenodd" transform="matrix(1 0 0 -1 2576 1601)"/><path d="M-1.35931 47.8349C-4.47474 35.9349-3.78242 18.785 0.0253198 8.63503L3.4869-0.465174 118.41 0.234785 233.679 1.28491 233.679 27.535 233.679 53.7851 117.371 54.8349 0.717637 55.5349-1.35931 47.8349Z" fill="#FFFFFF" fill-rule="evenodd" transform="matrix(1 0 0 -1 2938 1350)"/><path d="M41.3012 297.907C21.9479 287.885 16.0732 282.011 5.35977 262.314L-3.62566 245.036-3.62566 150.006-3.28007 54.9754 7.77893 35.9697C15.0364 22.4926 23.3303 13.8535 33.3525 8.32448 48.2127-0.314623 48.9039-0.314623 139.794-0.314623L231.375-0.314623 231.375 25.6027 231.375 51.52 149.816 53.2479C88.3012 54.6301 66.8747 56.0122 62.7276 59.8134 52.7054 67.7614 49.9406 87.8039 49.9406 149.314 49.9406 210.479 53.3966 236.051 63.0732 243.999 66.8747 247.109 90.7203 248.837 149.816 250.219L231.375 251.947 231.375 277.864 231.375 303.782 143.25 304.473C60.654 305.164 54.4334 304.473 41.3012 297.907Z" fill="#FFFFFF" fill-rule="evenodd" transform="matrix(1 0 0 -1 3268 1600)"/><path d="M-2.89187 302.654C-3.92672 299.894-4.27167 287.816-3.58177 275.739L-2.54693 253.655 49.8842 252.62 102.661 251.585 103.351 126.671 104.385 1.75718 131.291 0.721867 157.852-0.313086 157.852 125.636 157.852 251.585 210.628 252.62 263.06 253.655 263.06 279.535 263.06 305.415 130.946 306.45C21.9441 307.14-1.16749 306.45-2.89187 302.654Z" fill="#FFFFFF" fill-rule="evenodd" transform="matrix(1 0 0 -1 3595 1602)"/><path d="M15.0514 178.19C-0.539813 169.579-2.96517 161.312-3.31165 119.976-3.65813 64.5176 1.88554 43.1607 22.6739 21.4596 41.3835 1.48087 46.9271 0.44736 144.286 0.102738L232.637-0.241524 232.637 31.1047C232.637 60.3839 232.291 62.1063 225.015 63.8287 220.511 64.8618 183.784 65.8953 143.593 66.2399 72.5662 67.2731 69.7944 67.6177 62.1718 74.8515 56.2821 81.0519 54.2032 87.5964 53.1637 105.164L51.7778 127.554 140.129 127.554C217.392 127.554 228.826 128.243 230.559 133.066 234.369 142.711 232.637 174.401 228.48 178.535 222.59 184.391 26.1387 184.046 15.0514 178.19Z" fill="#FFFFFF" fill-rule="evenodd" transform="matrix(1 0 0 -1 2941 1602)"/></g></svg>