<?xml version="1.0" standalone="no"?>
<!DOCTYPE svg PUBLIC "-//W3C//DTD SVG 20010904//EN"
 "http://www.w3.org/TR/2001/REC-SVG-20010904/DTD/svg10.dtd">
<svg version="1.0" xmlns="http://www.w3.org/2000/svg"
 width="1274.000000pt" height="193.000000pt" viewBox="0 0 1274.000000 193.000000"
 preserveAspectRatio="xMidYMid meet">

<g transform="translate(0.000000,193.000000) scale(0.100000,-0.100000)"
fill="#000000" stroke="none">
<path d="M4105 1759 c-104 -55 -118 -85 -125 -279 l-5 -155 -162 -5 -161 -5
-39 -31 c-21 -16 -48 -50 -61 -75 -22 -42 -23 -52 -20 -254 3 -209 3 -210 30
-249 15 -21 46 -51 70 -67 l43 -29 363 0 362 0 0 295 0 295 288 0 289 0 21
-23 c21 -22 22 -32 22 -208 -1 -129 -4 -189 -13 -200 -26 -35 -54 -39 -241
-39 l-186 0 0 -172 c0 -207 -8 -244 -55 -264 -43 -18 -316 -20 -365 -3 -41 15
-60 58 -60 139 l0 60 -61 0 -62 0 6 -100 c4 -82 9 -105 28 -132 30 -42 45 -55
94 -78 35 -17 63 -20 225 -20 102 0 202 5 224 11 50 14 118 82 134 135 7 24
12 98 12 173 l0 131 144 0 c80 0 155 4 168 9 14 5 43 26 65 48 60 56 73 110
73 303 0 209 -17 264 -102 327 l-32 23 -368 0 -368 0 -2 -292 -3 -293 -282 -3
-281 -2 -31 31 -31 31 0 173 c0 172 0 174 26 204 l26 31 199 0 199 0 0 184 c0
102 5 196 10 213 18 52 44 58 236 58 l174 0 26 -27 c23 -23 28 -37 32 -102 l5
-76 60 0 59 0 -4 90 c-4 80 -7 95 -34 132 -16 23 -49 56 -73 73 l-43 30 -201
2 c-188 3 -205 1 -242 -18z"/>
<path d="M339 1401 c-64 -13 -102 -43 -134 -106 l-30 -59 -3 -240 c-4 -293 3
-340 62 -404 65 -71 63 -71 349 -72 299 -1 305 1 331 77 22 64 24 434 2 452
-9 8 -77 11 -222 9 l-209 -3 0 -75 0 -75 145 -5 145 -5 3 -94 c2 -60 -1 -98
-9 -107 -9 -11 -49 -14 -191 -14 -104 0 -187 4 -199 10 -43 24 -49 57 -49 277
0 190 2 211 20 241 11 17 21 33 22 34 2 1 127 4 278 7 l275 6 0 75 0 75 -275
1 c-151 1 -291 -1 -311 -5z"/>
<path d="M1196 1395 c-11 -28 -7 -120 6 -133 9 -9 81 -12 263 -12 279 0 289
-2 301 -65 3 -19 3 -51 0 -70 -13 -66 -10 -65 -295 -65 -207 0 -261 -3 -270
-14 -8 -9 -11 -87 -9 -262 l3 -249 77 -3 78 -3 2 183 3 183 111 3 112 3 44
-78 c25 -43 48 -85 52 -93 4 -8 20 -37 36 -65 17 -27 40 -69 52 -92 l22 -43
83 0 c65 0 85 3 89 15 4 8 -19 58 -52 112 -31 54 -64 112 -72 128 -9 17 -26
46 -39 65 -29 43 -29 46 3 54 41 11 74 36 102 80 25 39 26 48 27 171 0 123 -1
132 -26 173 -14 23 -41 53 -58 66 -33 24 -33 24 -336 26 -270 1 -303 -1 -309
-15z"/>
<path d="M2313 1395 c-48 -21 -84 -82 -96 -167 -21 -152 21 -300 93 -325 22
-7 106 -12 227 -12 l193 -1 16 -25 c21 -32 15 -162 -7 -176 -8 -5 -125 -9
-261 -9 -279 0 -268 3 -268 -80 0 -84 -15 -80 300 -80 160 0 290 4 305 10 73
28 111 131 103 284 -6 111 -33 178 -87 213 -32 22 -44 23 -227 23 -162 0 -195
3 -208 16 -20 20 -23 158 -3 171 6 4 120 10 252 13 l240 5 0 75 0 75 -270 2
c-213 2 -277 -1 -302 -12z"/>
<path d="M5872 1384 c-101 -50 -132 -149 -132 -426 0 -206 22 -322 73 -376 53
-58 72 -61 356 -62 l262 -1 -3 78 -3 78 -237 5 c-199 4 -240 8 -253 21 -25 25
-38 148 -33 314 6 193 16 219 83 228 26 4 137 7 247 7 l199 0 -3 78 -3 77
-251 2 c-251 2 -252 2 -302 -23z"/>
<path d="M6853 1398 c-51 -14 -117 -84 -138 -148 -23 -69 -34 -410 -16 -505
17 -93 54 -158 109 -195 l47 -31 246 3 246 3 42 28 c32 21 50 44 72 92 l30 64
-3 268 c-3 257 -4 270 -26 309 -27 49 -54 75 -105 102 -36 19 -56 20 -255 20
-120 0 -231 -5 -249 -10z m449 -176 c22 -22 23 -30 26 -231 4 -234 -4 -286
-44 -301 -28 -11 -335 -13 -372 -4 -47 13 -54 48 -53 282 1 295 -12 282 258
279 154 -2 164 -3 185 -25z"/>
<path d="M7810 1403 c-8 -3 -24 -15 -35 -27 -19 -20 -20 -34 -20 -436 l0 -415
75 0 75 0 5 340 c5 310 6 338 20 315 46 -75 224 -392 233 -415 4 -11 12 -22
16 -25 5 -3 17 -23 28 -45 48 -95 86 -156 103 -165 10 -6 57 -10 103 -10 69 0
89 4 108 19 l24 19 0 424 0 423 -66 3 c-47 2 -69 -1 -77 -11 -8 -10 -13 -115
-14 -347 l-3 -333 -35 65 c-45 85 -130 237 -175 313 -19 33 -44 78 -55 100
-40 80 -86 155 -112 185 -25 29 -29 30 -105 29 -43 0 -85 -3 -93 -6z"/>
<path d="M8860 1397 c-49 -25 -50 -33 -47 -467 l2 -405 73 -3 c39 -2 73 -2 74
0 1 2 5 156 8 343 l5 340 35 -60 c19 -33 41 -75 48 -92 8 -18 18 -33 23 -33 5
0 9 -4 9 -10 0 -18 251 -455 271 -473 17 -13 40 -17 108 -17 101 0 118 9 131
65 5 22 10 212 10 421 0 317 -2 384 -14 393 -9 7 -40 11 -78 9 l-63 -3 -5
-344 -5 -344 -30 54 c-16 30 -35 63 -42 74 -7 11 -21 38 -33 60 -11 22 -30 56
-41 75 -12 19 -64 112 -116 205 -52 94 -106 182 -121 198 -24 25 -32 27 -101
27 -42 0 -87 -6 -101 -13z"/>
<path d="M9866 1388 c-9 -34 -7 -83 4 -112 l10 -26 332 2 333 3 0 75 0 75
-336 3 -337 2 -6 -22z"/>
<path d="M10945 1388 c-56 -29 -73 -46 -104 -103 l-26 -50 0 -275 1 -275 32
-55 c21 -39 45 -64 74 -80 43 -25 45 -25 308 -25 l265 0 0 75 0 75 -236 5
c-178 4 -240 8 -252 19 -29 23 -37 81 -37 259 0 177 10 251 38 274 11 9 80 14
251 18 l236 5 0 75 0 75 -255 2 c-239 2 -257 0 -295 -19z"/>
<path d="M11764 1397 c-3 -8 -4 -43 -2 -78 l3 -64 152 -3 153 -3 2 -362 3
-362 78 -3 77 -3 0 365 0 365 153 3 152 3 0 75 0 75 -383 3 c-316 2 -383 0
-388 -11z"/>
<path d="M9922 1037 c-45 -25 -52 -49 -53 -169 -1 -161 15 -223 75 -286 54
-58 70 -61 351 -62 l255 -1 0 91 c0 85 -1 90 -22 95 -13 3 -119 6 -235 7 -205
3 -213 4 -235 25 -17 18 -23 37 -26 88 l-4 65 255 0 c223 0 256 2 261 16 11
28 6 120 -6 132 -17 17 -584 16 -616 -1z"/>
</g>
</svg>
