<svg width="911" height="910" xmlns="http://www.w3.org/2000/svg" xmlns:xlink="http://www.w3.org/1999/xlink" xml:space="preserve" overflow="hidden"><defs><clipPath id="clip0"><rect x="341" y="840" width="911" height="910"/></clipPath></defs><g clip-path="url(#clip0)" transform="translate(-341 -840)"><path d="M320.422 897.74C261.975 866.843 254.107 849.991 250.173 741.009L247.363 653.937 156.32 651.128 65.8394 648.319 43.9213 630.905C32.1193 621.916 16.9458 602.817 9.63978 588.773-2.72427 565.179-3.28628 559.561-1.60027 446.086 0.0857391 328.678 0.0857391 328.116 15.2598 306.207 23.6898 294.41 41.1113 277.558 54.5994 268.57L78.7649 252.278 282.769 252.278 486.211 252.278 486.211 417.998 486.211 583.717 648.065 583.717 810.482 583.717 822.283 570.796C834.085 558.438 834.647 552.82 834.647 453.95 834.085 381.483 832.399 347.777 827.341 341.598 812.729 321.937 796.993 319.689 691.901 319.689L587.37 319.689 587.37 223.067C587.37 106.783 582.874 85.9977 556.46 74.7626 532.294 64.651 378.87 63.5275 351.332 73.0772 328.29 81.5039 317.612 105.66 317.612 151.162L317.612 184.867 283.331 184.867 248.487 184.867 251.859 128.692C254.107 82.6274 256.917 69.7068 267.595 54.5394 284.455 30.9451 292.885 23.6424 320.422 10.7219 340.092 1.17224 355.828-0.513224 446.871-0.513224 504.195-0.513224 560.394 2.29569 572.758 5.66605 600.857 13.5308 639.073 51.7304 648.065 81.5039 651.999 94.9859 654.809 136.556 654.809 178.688L654.809 252.278 735.736 252.278C780.696 252.278 822.845 254.526 830.151 257.334 838.019 260.143 854.317 271.94 866.681 284.299 900.401 315.758 907.706 346.093 907.706 454.512 907.706 571.92 898.153 602.817 850.383 638.207L832.399 651.128 625.586 651.128 418.772 651.128 417.648 487.094 415.962 322.498 257.479 320.813 99.559 319.689 82.1369 337.104 64.7154 354.519 64.7154 451.703C64.7154 548.326 64.7154 549.449 79.3269 566.302L93.939 583.717 205.776 583.717 317.612 583.717 317.612 687.081C317.612 744.38 320.422 797.185 323.232 806.735 333.348 835.947 347.961 839.317 455.863 839.317L553.65 839.317 568.262 824.15C581.188 811.229 583.998 803.364 586.246 766.85L589.055 724.157 622.776 724.157 655.933 724.157 653.685 774.715C651.437 819.656 649.751 828.082 634.577 848.867 625.586 861.787 607.039 880.326 593.551 889.875L569.386 906.728 456.425 907.852C350.77 909.537 341.216 908.414 320.422 897.74Z" fill-rule="evenodd" transform="matrix(1 0 0 -1 344 1749)"/></g></svg>