<svg width="1082" height="433" xmlns="http://www.w3.org/2000/svg" xmlns:xlink="http://www.w3.org/1999/xlink" xml:space="preserve" overflow="hidden"><defs><clipPath id="clip0"><rect x="115" y="118" width="1082" height="433"/></clipPath></defs><g clip-path="url(#clip0)" transform="translate(-115 -118)"><path d="M146.94 411.687C120.137 397.519 116.529 389.791 114.725 339.813L113.436 299.884 71.6855 298.596 30.1928 297.307 20.1416 289.322C14.7293 285.199 7.77104 276.441 4.42063 270.001-1.2493 259.181-1.50703 256.605-0.733855 204.567 0.0393185 150.726 0.0393185 150.468 6.99787 140.421 10.8637 135.011 18.8529 127.283 25.0383 123.161L36.1202 115.69 129.673 115.69 222.968 115.69 222.968 191.686 222.968 267.682 297.191 267.682 371.672 267.682 377.085 261.757C382.496 256.09 382.754 253.513 382.754 208.173 382.496 174.941 381.723 159.484 379.404 156.651 372.703 147.635 365.487 146.604 317.293 146.604L269.357 146.604 269.357 102.295C269.357 48.9688 267.296 39.437 255.183 34.2848 244.101 29.6478 173.743 29.1326 161.115 33.5119 150.548 37.3762 145.651 48.4538 145.651 69.3202L145.651 84.7767 129.93 84.7767 113.952 84.7767 115.498 59.0158C116.529 37.8914 117.818 31.9663 122.714 25.0108 130.446 14.1909 134.312 10.842 146.94 4.91687 155.961 0.537568 163.176-0.235355 204.927-0.235355 231.215-0.235355 256.987 1.05276 262.656 2.59835 275.543 6.20498 293.067 23.7226 297.191 37.3762 298.995 43.5588 300.284 62.6221 300.284 81.9431L300.284 115.69 337.396 115.69C358.013 115.69 377.342 116.721 380.692 118.009 384.3 119.297 391.774 124.707 397.444 130.374 412.908 144.801 416.258 158.712 416.258 208.431 416.258 262.272 411.877 276.441 389.97 292.67L381.723 298.596 286.882 298.596 192.041 298.596 191.526 223.373 190.753 147.892 118.075 147.119 45.656 146.604 37.6665 154.59 29.6774 162.576 29.6774 207.143C29.6774 251.452 29.6774 251.967 36.3779 259.696L43.0787 267.682 94.3652 267.682 145.651 267.682 145.651 315.083C145.651 341.359 146.94 365.575 148.229 369.954 152.868 383.35 159.569 384.896 209.051 384.896L253.894 384.896 260.595 377.94C266.522 372.015 267.811 368.408 268.842 351.664L270.13 332.085 285.594 332.085 300.799 332.085 299.768 355.27C298.737 375.879 297.964 379.743 291.006 389.275 286.882 395.2 278.378 403.702 272.192 408.081L261.11 415.809 209.308 416.325C160.857 417.097 156.476 416.582 146.94 411.687Z" fill="#064966" fill-rule="evenodd" transform="matrix(1 0 0 -1.00146 116.376 544.025)"/><text fill="#E71D1C" font-family="Agency FB,Agency FB_MSFontService,sans-serif" font-weight="700" font-stretch="condensed" font-size="440" transform="matrix(0.458582 0 0 0.45925 548.631 294)">GRS<tspan fill="#000000" font-size="440" x="0" y="411.541">CONNECT</tspan></text></g></svg>